<?xml version="1.0" encoding="iso-8859-1"?>
<!-- Generator: Adobe Illustrator 19.0.0, SVG Export Plug-In . SVG Version: 6.00 Build 0)  -->
<svg version="1.1" id="Capa_1" xmlns="http://www.w3.org/2000/svg" xmlns:xlink="http://www.w3.org/1999/xlink" x="0px" y="0px"
	 viewBox="0 0 512 512" style="enable-background:new 0 0 512 512;" xml:space="preserve">
<g>
	<g>
		<path d="M437,60H75C33.645,60,0,93.645,0,135v242c0,41.355,33.645,75,75,75h362c41.355,0,75-33.645,75-75V135
			C512,93.645,478.355,60,437,60z M482,377c0,24.813-20.187,45-45,45H75c-24.813,0-45-20.187-45-45V135c0-24.813,20.187-45,45-45
			h362c24.813,0,45,20.187,45,45V377z"/>
	</g>
</g>
<g>
	<g>
		<rect x="60" y="150" width="90" height="30"/>
	</g>
</g>
<g>
	<g>
		<rect x="211" y="150" width="90" height="30"/>
	</g>
</g>
<g>
	<g>
		<rect x="362" y="150" width="90" height="30"/>
	</g>
</g>
<g>
	<g>
		<path d="M377,242c-16.87,0-32.455,5.603-44.998,15.039C319.118,247.37,303.352,242,287,242c-41.355,0-75,33.645-75,75
			c0,41.355,33.645,75,75,75c16.352,0,32.118-5.37,45.002-15.039C344.545,386.397,360.13,392,377,392c41.355,0,75-33.645,75-75
			C452,275.645,418.355,242,377,242z M312.019,354.377C304.678,359.293,295.985,362,287,362c-24.813,0-45-20.187-45-45
			s20.187-45,45-45c8.985,0,17.678,2.707,25.019,7.623C305.66,290.637,302,303.395,302,317
			C302,330.605,305.66,343.363,312.019,354.377z M377,362c-24.813,0-45-20.187-45-45s20.187-45,45-45s45,20.187,45,45
			S401.813,362,377,362z"/>
	</g>
</g>
<g>
</g>
<g>
</g>
<g>
</g>
<g>
</g>
<g>
</g>
<g>
</g>
<g>
</g>
<g>
</g>
<g>
</g>
<g>
</g>
<g>
</g>
<g>
</g>
<g>
</g>
<g>
</g>
<g>
</g>
</svg>
